<?xml version="1.0" encoding="UTF-8" standalone="no"?>
<!DOCTYPE svg PUBLIC "-//W3C//DTD SVG 1.1//EN"
 "http://www.w3.org/Graphics/SVG/1.1/DTD/svg11.dtd">
<!-- Generated by graphviz version 2.50.0 (20211204.2007)
 -->
<!-- Title: workflow Pages: 1 -->
<svg width="731pt" height="304pt"
 viewBox="0.00 0.00 730.94 303.70" xmlns="http://www.w3.org/2000/svg" xmlns:xlink="http://www.w3.org/1999/xlink">
<g id="graph0" class="graph" transform="scale(1 1) rotate(0) translate(4 299.7)">
<title>workflow</title>
<polygon fill="white" stroke="transparent" points="-4,4 -4,-299.7 726.94,-299.7 726.94,4 -4,4"/>
<!-- place_e2b8cbb7d684153a4754925ea4c3ce60adc9ccc4 -->
<g id="node1" class="node">
<title>place_e2b8cbb7d684153a4754925ea4c3ce60adc9ccc4</title>
<ellipse fill="lightblue" stroke="#333333" cx="39.76" cy="-154.71" rx="39.53" ry="39.53"/>
<text text-anchor="middle" x="39.76" y="-152.51" font-family="Arial" font-size="9.00">new_company</text>
</g>
<!-- transition_b6589fc6ab0dc82cf12099d1c2d40ab994e8410c -->
<g id="node5" class="node">
<title>transition_b6589fc6ab0dc82cf12099d1c2d40ab994e8410c</title>
<polygon fill="none" stroke="#333333" points="200.53,-197.21 115.53,-197.21 115.53,-112.21 200.53,-112.21 200.53,-197.21"/>
<text text-anchor="middle" x="158.03" y="-152.51" font-family="Arial" font-size="9.00">create_company</text>
</g>
<!-- place_e2b8cbb7d684153a4754925ea4c3ce60adc9ccc4&#45;&gt;transition_b6589fc6ab0dc82cf12099d1c2d40ab994e8410c -->
<g id="edge1" class="edge">
<title>place_e2b8cbb7d684153a4754925ea4c3ce60adc9ccc4&#45;&gt;transition_b6589fc6ab0dc82cf12099d1c2d40ab994e8410c</title>
<path fill="none" stroke="#333333" d="M79.8,-154.71C89.57,-154.71 100.16,-154.71 110.27,-154.71"/>
<polygon fill="#333333" stroke="#333333" points="110.5,-156.46 115.5,-154.71 110.5,-152.96 110.5,-156.46"/>
</g>
<!-- place_6eccfbe291f324971af6784befbc212824e44176 -->
<g id="node2" class="node">
<title>place_6eccfbe291f324971af6784befbc212824e44176</title>
<ellipse fill="none" stroke="#333333" cx="272.53" cy="-154.71" rx="36" ry="36"/>
<text text-anchor="middle" x="272.53" y="-152.51" font-family="Arial" font-size="9.00">listing</text>
</g>
<!-- transition_356a192b7913b04c54574d18c28d46e6395428ab -->
<g id="node6" class="node">
<title>transition_356a192b7913b04c54574d18c28d46e6395428ab</title>
<polygon fill="none" stroke="#333333" points="432.03,-283.71 354.03,-283.71 354.03,-205.71 432.03,-205.71 432.03,-283.71"/>
<text text-anchor="middle" x="393.03" y="-242.51" font-family="Arial" font-size="9.00">add_employee</text>
</g>
<!-- place_6eccfbe291f324971af6784befbc212824e44176&#45;&gt;transition_356a192b7913b04c54574d18c28d46e6395428ab -->
<g id="edge3" class="edge">
<title>place_6eccfbe291f324971af6784befbc212824e44176&#45;&gt;transition_356a192b7913b04c54574d18c28d46e6395428ab</title>
<path fill="none" stroke="#333333" d="M301.61,-176.03C315.99,-186.96 333.81,-200.49 349.81,-212.64"/>
<polygon fill="#333333" stroke="#333333" points="348.79,-214.07 353.83,-215.7 350.91,-211.28 348.79,-214.07"/>
</g>
<!-- transition_77de68daecd823babbb58edb1c8e14d7106e83bb -->
<g id="node8" class="node">
<title>transition_77de68daecd823babbb58edb1c8e14d7106e83bb</title>
<polygon fill="none" stroke="#333333" points="441.53,-105.21 344.53,-105.21 344.53,-8.21 441.53,-8.21 441.53,-105.21"/>
<text text-anchor="middle" x="393.03" y="-54.51" font-family="Arial" font-size="9.00">update_information</text>
</g>
<!-- place_6eccfbe291f324971af6784befbc212824e44176&#45;&gt;transition_77de68daecd823babbb58edb1c8e14d7106e83bb -->
<g id="edge7" class="edge">
<title>place_6eccfbe291f324971af6784befbc212824e44176&#45;&gt;transition_77de68daecd823babbb58edb1c8e14d7106e83bb</title>
<path fill="none" stroke="#333333" d="M300.71,-132.22C312.58,-122.41 326.9,-110.56 340.65,-99.19"/>
<polygon fill="#333333" stroke="#333333" points="341.77,-100.54 344.51,-96 339.54,-97.84 341.77,-100.54"/>
</g>
<!-- place_5ae9a91fa8828cc816366b2a354507c8c3dd121f -->
<g id="node3" class="node">
<title>place_5ae9a91fa8828cc816366b2a354507c8c3dd121f</title>
<ellipse fill="none" stroke="#333333" cx="531.23" cy="-248.71" rx="46.98" ry="46.98"/>
<text text-anchor="middle" x="531.23" y="-246.51" font-family="Arial" font-size="9.00">adding_employee</text>
</g>
<!-- transition_da4b9237bacccdf19c0760cab7aec4a8359010b0 -->
<g id="node7" class="node">
<title>transition_da4b9237bacccdf19c0760cab7aec4a8359010b0</title>
<polygon fill="none" stroke="#333333" points="716.44,-255.21 627.44,-255.21 627.44,-166.21 716.44,-166.21 716.44,-255.21"/>
<text text-anchor="middle" x="671.94" y="-208.51" font-family="Arial" font-size="9.00">employee_added</text>
</g>
<!-- place_5ae9a91fa8828cc816366b2a354507c8c3dd121f&#45;&gt;transition_da4b9237bacccdf19c0760cab7aec4a8359010b0 -->
<g id="edge5" class="edge">
<title>place_5ae9a91fa8828cc816366b2a354507c8c3dd121f&#45;&gt;transition_da4b9237bacccdf19c0760cab7aec4a8359010b0</title>
<path fill="none" stroke="#333333" d="M576.88,-236.47C591.4,-232.5 607.57,-228.06 622.36,-224.01"/>
<polygon fill="#333333" stroke="#333333" points="622.96,-225.66 627.32,-222.66 622.03,-222.29 622.96,-225.66"/>
</g>
<!-- place_0e7c3bd80732f85c0aedec08b3d91683fa7783dc -->
<g id="node4" class="node">
<title>place_0e7c3bd80732f85c0aedec08b3d91683fa7783dc</title>
<ellipse fill="none" stroke="#333333" cx="531.23" cy="-53.71" rx="53.91" ry="53.91"/>
<text text-anchor="middle" x="531.23" y="-51.51" font-family="Arial" font-size="9.00">updating_information</text>
</g>
<!-- transition_1b6453892473a467d07372d45eb05abc2031647a -->
<g id="node9" class="node">
<title>transition_1b6453892473a467d07372d45eb05abc2031647a</title>
<polygon fill="none" stroke="#333333" points="722.94,-144.71 620.94,-144.71 620.94,-42.71 722.94,-42.71 722.94,-144.71"/>
<text text-anchor="middle" x="671.94" y="-91.51" font-family="Arial" font-size="9.00">information_updated</text>
</g>
<!-- place_0e7c3bd80732f85c0aedec08b3d91683fa7783dc&#45;&gt;transition_1b6453892473a467d07372d45eb05abc2031647a -->
<g id="edge9" class="edge">
<title>place_0e7c3bd80732f85c0aedec08b3d91683fa7783dc&#45;&gt;transition_1b6453892473a467d07372d45eb05abc2031647a</title>
<path fill="none" stroke="#333333" d="M583.09,-68.37C593.69,-71.43 604.9,-74.66 615.64,-77.76"/>
<polygon fill="#333333" stroke="#333333" points="615.26,-79.47 620.54,-79.17 616.23,-76.11 615.26,-79.47"/>
</g>
<!-- transition_b6589fc6ab0dc82cf12099d1c2d40ab994e8410c&#45;&gt;place_6eccfbe291f324971af6784befbc212824e44176 -->
<g id="edge2" class="edge">
<title>transition_b6589fc6ab0dc82cf12099d1c2d40ab994e8410c&#45;&gt;place_6eccfbe291f324971af6784befbc212824e44176</title>
<path fill="none" stroke="#333333" d="M200.6,-154.71C210.62,-154.71 221.31,-154.71 231.27,-154.71"/>
<polygon fill="#333333" stroke="#333333" points="231.4,-156.46 236.4,-154.71 231.4,-152.96 231.4,-156.46"/>
</g>
<!-- transition_356a192b7913b04c54574d18c28d46e6395428ab&#45;&gt;place_5ae9a91fa8828cc816366b2a354507c8c3dd121f -->
<g id="edge4" class="edge">
<title>transition_356a192b7913b04c54574d18c28d46e6395428ab&#45;&gt;place_5ae9a91fa8828cc816366b2a354507c8c3dd121f</title>
<path fill="none" stroke="#333333" d="M432.33,-245.83C446.75,-246.25 463.39,-246.74 478.82,-247.2"/>
<polygon fill="#333333" stroke="#333333" points="478.95,-248.95 484,-247.35 479.05,-245.45 478.95,-248.95"/>
</g>
<!-- transition_da4b9237bacccdf19c0760cab7aec4a8359010b0&#45;&gt;place_6eccfbe291f324971af6784befbc212824e44176 -->
<g id="edge6" class="edge">
<title>transition_da4b9237bacccdf19c0760cab7aec4a8359010b0&#45;&gt;place_6eccfbe291f324971af6784befbc212824e44176</title>
<path fill="none" stroke="#333333" d="M627.32,-200.83C613.78,-197.96 598.78,-194.99 584.94,-192.71 488.18,-176.71 373.47,-164.41 313.93,-158.53"/>
<polygon fill="#333333" stroke="#333333" points="313.84,-156.76 308.69,-158.01 313.49,-160.24 313.84,-156.76"/>
</g>
<!-- transition_77de68daecd823babbb58edb1c8e14d7106e83bb&#45;&gt;place_0e7c3bd80732f85c0aedec08b3d91683fa7783dc -->
<g id="edge8" class="edge">
<title>transition_77de68daecd823babbb58edb1c8e14d7106e83bb&#45;&gt;place_0e7c3bd80732f85c0aedec08b3d91683fa7783dc</title>
<path fill="none" stroke="#333333" d="M441.66,-55.66C451.46,-55.44 461.88,-55.21 472.01,-54.99"/>
<polygon fill="#333333" stroke="#333333" points="472.31,-56.73 477.27,-54.87 472.23,-53.23 472.31,-56.73"/>
</g>
<!-- transition_1b6453892473a467d07372d45eb05abc2031647a&#45;&gt;place_6eccfbe291f324971af6784befbc212824e44176 -->
<g id="edge10" class="edge">
<title>transition_1b6453892473a467d07372d45eb05abc2031647a&#45;&gt;place_6eccfbe291f324971af6784befbc212824e44176</title>
<path fill="none" stroke="#333333" d="M620.73,-108.39C609.05,-111.46 596.62,-114.44 584.94,-116.71 488.65,-135.36 373.75,-146.57 314.05,-151.58"/>
<polygon fill="#333333" stroke="#333333" points="313.64,-149.86 308.8,-152.02 313.93,-153.35 313.64,-149.86"/>
</g>
</g>
</svg>
