<?xml version="1.0" encoding="UTF-8" standalone="no"?>
<!DOCTYPE svg PUBLIC "-//W3C//DTD SVG 1.1//EN"
 "http://www.w3.org/Graphics/SVG/1.1/DTD/svg11.dtd">
<!-- Generated by graphviz version 2.50.0 (20211204.2007)
 -->
<!-- Title: workflow Pages: 1 -->
<svg width="677pt" height="283pt"
 viewBox="0.00 0.00 677.12 282.86" xmlns="http://www.w3.org/2000/svg" xmlns:xlink="http://www.w3.org/1999/xlink">
<g id="graph0" class="graph" transform="scale(1 1) rotate(0) translate(4 278.86)">
<title>workflow</title>
<polygon fill="white" stroke="transparent" points="-4,4 -4,-278.86 673.12,-278.86 673.12,4 -4,4"/>
<!-- place_7a9bdd34a62cb73b91fb7f6cf07b43d4c5ec06fe -->
<g id="node1" class="node">
<title>place_7a9bdd34a62cb73b91fb7f6cf07b43d4c5ec06fe</title>
<ellipse fill="lightblue" stroke="#333333" cx="41.31" cy="-103.86" rx="41.12" ry="41.12"/>
<text text-anchor="middle" x="41.31" y="-101.66" font-family="Arial" font-size="9.00">new_employee</text>
</g>
<!-- transition_b6589fc6ab0dc82cf12099d1c2d40ab994e8410c -->
<g id="node5" class="node">
<title>transition_b6589fc6ab0dc82cf12099d1c2d40ab994e8410c</title>
<polygon fill="none" stroke="#333333" points="228.62,-158.86 118.62,-158.86 118.62,-48.86 228.62,-48.86 228.62,-158.86"/>
<text text-anchor="middle" x="173.62" y="-101.66" font-family="Arial" font-size="9.00">create_new_employee</text>
</g>
<!-- place_7a9bdd34a62cb73b91fb7f6cf07b43d4c5ec06fe&#45;&gt;transition_b6589fc6ab0dc82cf12099d1c2d40ab994e8410c -->
<g id="edge1" class="edge">
<title>place_7a9bdd34a62cb73b91fb7f6cf07b43d4c5ec06fe&#45;&gt;transition_b6589fc6ab0dc82cf12099d1c2d40ab994e8410c</title>
<path fill="none" stroke="#333333" d="M82.83,-103.86C92.46,-103.86 102.93,-103.86 113.21,-103.86"/>
<polygon fill="#333333" stroke="#333333" points="113.24,-105.61 118.24,-103.86 113.24,-102.11 113.24,-105.61"/>
</g>
<!-- place_2bb6b986c5d6fb26dd9dd1054b545ce022371b0c -->
<g id="node2" class="node">
<title>place_2bb6b986c5d6fb26dd9dd1054b545ce022371b0c</title>
<ellipse fill="none" stroke="#333333" cx="300.62" cy="-103.86" rx="36" ry="36"/>
<text text-anchor="middle" x="300.62" y="-101.66" font-family="Arial" font-size="9.00">active</text>
</g>
<!-- transition_356a192b7913b04c54574d18c28d46e6395428ab -->
<g id="node6" class="node">
<title>transition_356a192b7913b04c54574d18c28d46e6395428ab</title>
<polygon fill="none" stroke="#333333" points="444.62,-274.86 372.62,-274.86 372.62,-202.86 444.62,-202.86 444.62,-274.86"/>
<text text-anchor="middle" x="408.62" y="-236.66" font-family="Arial" font-size="9.00">change_role</text>
</g>
<!-- place_2bb6b986c5d6fb26dd9dd1054b545ce022371b0c&#45;&gt;transition_356a192b7913b04c54574d18c28d46e6395428ab -->
<g id="edge3" class="edge">
<title>place_2bb6b986c5d6fb26dd9dd1054b545ce022371b0c&#45;&gt;transition_356a192b7913b04c54574d18c28d46e6395428ab</title>
<path fill="none" stroke="#333333" d="M323.59,-131.83C338.77,-151.17 359.21,-177.2 376.12,-198.74"/>
<polygon fill="#333333" stroke="#333333" points="374.77,-199.86 379.24,-202.71 377.53,-197.69 374.77,-199.86"/>
</g>
<!-- transition_77de68daecd823babbb58edb1c8e14d7106e83bb -->
<g id="node8" class="node">
<title>transition_77de68daecd823babbb58edb1c8e14d7106e83bb</title>
<polygon fill="none" stroke="#333333" points="444.62,-184.86 372.62,-184.86 372.62,-112.86 444.62,-112.86 444.62,-184.86"/>
<text text-anchor="middle" x="408.62" y="-146.66" font-family="Arial" font-size="9.00">reactivate</text>
</g>
<!-- place_2bb6b986c5d6fb26dd9dd1054b545ce022371b0c&#45;&gt;transition_77de68daecd823babbb58edb1c8e14d7106e83bb -->
<g id="edge7" class="edge">
<title>place_2bb6b986c5d6fb26dd9dd1054b545ce022371b0c&#45;&gt;transition_77de68daecd823babbb58edb1c8e14d7106e83bb</title>
<path fill="none" stroke="#333333" d="M334,-117.61C344.66,-122.13 356.63,-127.21 367.77,-131.94"/>
<polygon fill="#333333" stroke="#333333" points="367.21,-133.6 372.49,-133.95 368.57,-130.38 367.21,-133.6"/>
</g>
<!-- transition_1b6453892473a467d07372d45eb05abc2031647a -->
<g id="node9" class="node">
<title>transition_1b6453892473a467d07372d45eb05abc2031647a</title>
<polygon fill="none" stroke="#333333" points="444.62,-94.86 372.62,-94.86 372.62,-22.86 444.62,-22.86 444.62,-94.86"/>
<text text-anchor="middle" x="408.62" y="-56.66" font-family="Arial" font-size="9.00">deactivate</text>
</g>
<!-- place_2bb6b986c5d6fb26dd9dd1054b545ce022371b0c&#45;&gt;transition_1b6453892473a467d07372d45eb05abc2031647a -->
<g id="edge9" class="edge">
<title>place_2bb6b986c5d6fb26dd9dd1054b545ce022371b0c&#45;&gt;transition_1b6453892473a467d07372d45eb05abc2031647a</title>
<path fill="none" stroke="#333333" d="M334,-90.11C344.66,-85.59 356.63,-80.51 367.77,-75.78"/>
<polygon fill="#333333" stroke="#333333" points="368.57,-77.34 372.49,-73.77 367.21,-74.12 368.57,-77.34"/>
</g>
<!-- place_d436a3f40e3ecce896010be99dcf00a577b909aa -->
<g id="node3" class="node">
<title>place_d436a3f40e3ecce896010be99dcf00a577b909aa</title>
<ellipse fill="none" stroke="#333333" cx="519.87" cy="-101.86" rx="36" ry="36"/>
<text text-anchor="middle" x="519.87" y="-99.66" font-family="Arial" font-size="9.00">inactive</text>
</g>
<!-- place_a9919853656f8776848bd3f6cdd26acb77663b31 -->
<g id="node4" class="node">
<title>place_a9919853656f8776848bd3f6cdd26acb77663b31</title>
<ellipse fill="none" stroke="#333333" cx="519.87" cy="-216.86" rx="39.49" ry="39.49"/>
<text text-anchor="middle" x="519.87" y="-214.66" font-family="Arial" font-size="9.00">changing_role</text>
</g>
<!-- transition_da4b9237bacccdf19c0760cab7aec4a8359010b0 -->
<g id="node7" class="node">
<title>transition_da4b9237bacccdf19c0760cab7aec4a8359010b0</title>
<polygon fill="none" stroke="#333333" points="669.12,-109.86 595.12,-109.86 595.12,-35.86 669.12,-35.86 669.12,-109.86"/>
<text text-anchor="middle" x="632.12" y="-70.66" font-family="Arial" font-size="9.00">role_changed</text>
</g>
<!-- place_a9919853656f8776848bd3f6cdd26acb77663b31&#45;&gt;transition_da4b9237bacccdf19c0760cab7aec4a8359010b0 -->
<g id="edge5" class="edge">
<title>place_a9919853656f8776848bd3f6cdd26acb77663b31&#45;&gt;transition_da4b9237bacccdf19c0760cab7aec4a8359010b0</title>
<path fill="none" stroke="#333333" d="M544.52,-185.97C560.54,-165.04 581.9,-137.14 599.4,-114.29"/>
<polygon fill="#333333" stroke="#333333" points="600.96,-115.12 602.61,-110.09 598.19,-112.99 600.96,-115.12"/>
</g>
<!-- transition_b6589fc6ab0dc82cf12099d1c2d40ab994e8410c&#45;&gt;place_2bb6b986c5d6fb26dd9dd1054b545ce022371b0c -->
<g id="edge2" class="edge">
<title>transition_b6589fc6ab0dc82cf12099d1c2d40ab994e8410c&#45;&gt;place_2bb6b986c5d6fb26dd9dd1054b545ce022371b0c</title>
<path fill="none" stroke="#333333" d="M228.72,-103.86C239.06,-103.86 249.71,-103.86 259.52,-103.86"/>
<polygon fill="#333333" stroke="#333333" points="259.56,-105.61 264.56,-103.86 259.56,-102.11 259.56,-105.61"/>
</g>
<!-- transition_356a192b7913b04c54574d18c28d46e6395428ab&#45;&gt;place_a9919853656f8776848bd3f6cdd26acb77663b31 -->
<g id="edge4" class="edge">
<title>transition_356a192b7913b04c54574d18c28d46e6395428ab&#45;&gt;place_a9919853656f8776848bd3f6cdd26acb77663b31</title>
<path fill="none" stroke="#333333" d="M444.79,-231.78C454.76,-229.77 465.73,-227.56 476.09,-225.47"/>
<polygon fill="#333333" stroke="#333333" points="476.57,-227.16 481.13,-224.46 475.88,-223.73 476.57,-227.16"/>
</g>
<!-- transition_da4b9237bacccdf19c0760cab7aec4a8359010b0&#45;&gt;place_2bb6b986c5d6fb26dd9dd1054b545ce022371b0c -->
<g id="edge6" class="edge">
<title>transition_da4b9237bacccdf19c0760cab7aec4a8359010b0&#45;&gt;place_2bb6b986c5d6fb26dd9dd1054b545ce022371b0c</title>
<path fill="none" stroke="#333333" d="M594.72,-50.06C543.06,-20.84 446.56,21.99 372.62,-13.86 349.65,-25 331.87,-47.58 319.85,-67.33"/>
<polygon fill="#333333" stroke="#333333" points="318.27,-66.57 317.22,-71.76 321.28,-68.35 318.27,-66.57"/>
</g>
<!-- transition_77de68daecd823babbb58edb1c8e14d7106e83bb&#45;&gt;place_d436a3f40e3ecce896010be99dcf00a577b909aa -->
<g id="edge8" class="edge">
<title>transition_77de68daecd823babbb58edb1c8e14d7106e83bb&#45;&gt;place_d436a3f40e3ecce896010be99dcf00a577b909aa</title>
<path fill="none" stroke="#333333" d="M444.79,-133.73C456.58,-128.66 469.75,-122.99 481.68,-117.86"/>
<polygon fill="#333333" stroke="#333333" points="482.46,-119.43 486.36,-115.84 481.08,-116.21 482.46,-119.43"/>
</g>
<!-- transition_1b6453892473a467d07372d45eb05abc2031647a&#45;&gt;place_d436a3f40e3ecce896010be99dcf00a577b909aa -->
<g id="edge10" class="edge">
<title>transition_1b6453892473a467d07372d45eb05abc2031647a&#45;&gt;place_d436a3f40e3ecce896010be99dcf00a577b909aa</title>
<path fill="none" stroke="#333333" d="M444.79,-72.7C456.36,-77.26 469.27,-82.34 481.03,-86.97"/>
<polygon fill="#333333" stroke="#333333" points="480.7,-88.72 486,-88.92 481.98,-85.46 480.7,-88.72"/>
</g>
</g>
</svg>
