<?xml version="1.0" encoding="UTF-8" standalone="no"?>
<!DOCTYPE svg PUBLIC "-//W3C//DTD SVG 1.1//EN"
 "http://www.w3.org/Graphics/SVG/1.1/DTD/svg11.dtd">
<!-- Generated by graphviz version 2.50.0 (20211204.2007)
 -->
<!-- Title: workflow Pages: 1 -->
<svg width="1060pt" height="186pt"
 viewBox="0.00 0.00 1060.05 186.00" xmlns="http://www.w3.org/2000/svg" xmlns:xlink="http://www.w3.org/1999/xlink">
<g id="graph0" class="graph" transform="scale(1 1) rotate(0) translate(4 182)">
<title>workflow</title>
<polygon fill="white" stroke="transparent" points="-4,4 -4,-182 1056.05,-182 1056.05,4 -4,4"/>
<!-- place_d8023c31ec13772e7be413d9e12bb6fbcb9004d7 -->
<g id="node1" class="node">
<title>place_d8023c31ec13772e7be413d9e12bb6fbcb9004d7</title>
<ellipse fill="lightblue" stroke="#333333" cx="38.21" cy="-86" rx="38.43" ry="38.43"/>
<text text-anchor="middle" x="38.21" y="-83.8" font-family="Arial" font-size="9.00">new_package</text>
</g>
<!-- transition_b6589fc6ab0dc82cf12099d1c2d40ab994e8410c -->
<g id="node6" class="node">
<title>transition_b6589fc6ab0dc82cf12099d1c2d40ab994e8410c</title>
<polygon fill="none" stroke="#333333" points="217.43,-138.5 112.43,-138.5 112.43,-33.5 217.43,-33.5 217.43,-138.5"/>
<text text-anchor="middle" x="164.93" y="-83.8" font-family="Arial" font-size="9.00">create_new_package</text>
</g>
<!-- place_d8023c31ec13772e7be413d9e12bb6fbcb9004d7&#45;&gt;transition_b6589fc6ab0dc82cf12099d1c2d40ab994e8410c -->
<g id="edge1" class="edge">
<title>place_d8023c31ec13772e7be413d9e12bb6fbcb9004d7&#45;&gt;transition_b6589fc6ab0dc82cf12099d1c2d40ab994e8410c</title>
<path fill="none" stroke="#333333" d="M76.63,-86C86.25,-86 96.82,-86 107.18,-86"/>
<polygon fill="#333333" stroke="#333333" points="107.24,-87.75 112.24,-86 107.24,-84.25 107.24,-87.75"/>
</g>
<!-- place_b3a93a5e9515ff16189566eaba4658b4cfc84182 -->
<g id="node2" class="node">
<title>place_b3a93a5e9515ff16189566eaba4658b4cfc84182</title>
<ellipse fill="none" stroke="#333333" cx="304.03" cy="-86" rx="50.71" ry="50.71"/>
<text text-anchor="middle" x="304.03" y="-83.8" font-family="Arial" font-size="9.00">waiting_for_delivery</text>
</g>
<!-- transition_356a192b7913b04c54574d18c28d46e6395428ab -->
<g id="node7" class="node">
<title>transition_356a192b7913b04c54574d18c28d46e6395428ab</title>
<polygon fill="none" stroke="#333333" points="476.64,-178 390.64,-178 390.64,-92 476.64,-92 476.64,-178"/>
<text text-anchor="middle" x="433.64" y="-132.8" font-family="Arial" font-size="9.00">give_to_deliverer</text>
</g>
<!-- place_b3a93a5e9515ff16189566eaba4658b4cfc84182&#45;&gt;transition_356a192b7913b04c54574d18c28d46e6395428ab -->
<g id="edge3" class="edge">
<title>place_b3a93a5e9515ff16189566eaba4658b4cfc84182&#45;&gt;transition_356a192b7913b04c54574d18c28d46e6395428ab</title>
<path fill="none" stroke="#333333" d="M351.46,-103.83C362.56,-108.09 374.42,-112.64 385.55,-116.92"/>
<polygon fill="#333333" stroke="#333333" points="384.97,-118.57 390.27,-118.73 386.23,-115.3 384.97,-118.57"/>
</g>
<!-- transition_da4b9237bacccdf19c0760cab7aec4a8359010b0 -->
<g id="node8" class="node">
<title>transition_da4b9237bacccdf19c0760cab7aec4a8359010b0</title>
<polygon fill="none" stroke="#333333" points="470.64,-74 396.64,-74 396.64,0 470.64,0 470.64,-74"/>
<text text-anchor="middle" x="433.64" y="-34.8" font-family="Arial" font-size="9.00">take_package</text>
</g>
<!-- place_b3a93a5e9515ff16189566eaba4658b4cfc84182&#45;&gt;transition_da4b9237bacccdf19c0760cab7aec4a8359010b0 -->
<g id="edge5" class="edge">
<title>place_b3a93a5e9515ff16189566eaba4658b4cfc84182&#45;&gt;transition_da4b9237bacccdf19c0760cab7aec4a8359010b0</title>
<path fill="none" stroke="#333333" d="M351.46,-68.17C364.55,-63.15 378.69,-57.72 391.45,-52.82"/>
<polygon fill="#333333" stroke="#333333" points="392.41,-54.32 396.45,-50.9 391.15,-51.06 392.41,-54.32"/>
</g>
<!-- place_aebb659e5fa39ba1447a5c1ce3a87e75ce4e8c29 -->
<g id="node3" class="node">
<title>place_aebb659e5fa39ba1447a5c1ce3a87e75ce4e8c29</title>
<ellipse fill="none" stroke="#333333" cx="548.64" cy="-86" rx="36" ry="36"/>
<text text-anchor="middle" x="548.64" y="-83.8" font-family="Arial" font-size="9.00">on_delivery</text>
</g>
<!-- transition_77de68daecd823babbb58edb1c8e14d7106e83bb -->
<g id="node9" class="node">
<title>transition_77de68daecd823babbb58edb1c8e14d7106e83bb</title>
<polygon fill="none" stroke="#333333" points="692.64,-122 620.64,-122 620.64,-50 692.64,-50 692.64,-122"/>
<text text-anchor="middle" x="656.64" y="-83.8" font-family="Arial" font-size="9.00">deliver</text>
</g>
<!-- place_aebb659e5fa39ba1447a5c1ce3a87e75ce4e8c29&#45;&gt;transition_77de68daecd823babbb58edb1c8e14d7106e83bb -->
<g id="edge7" class="edge">
<title>place_aebb659e5fa39ba1447a5c1ce3a87e75ce4e8c29&#45;&gt;transition_77de68daecd823babbb58edb1c8e14d7106e83bb</title>
<path fill="none" stroke="#333333" d="M584.64,-86C594.4,-86 605.08,-86 615.13,-86"/>
<polygon fill="#333333" stroke="#333333" points="615.31,-87.75 620.31,-86 615.31,-84.25 615.31,-87.75"/>
</g>
<!-- place_bdab27d37e868d3d83da2644677e5d19adc4c2a2 -->
<g id="node4" class="node">
<title>place_bdab27d37e868d3d83da2644677e5d19adc4c2a2</title>
<ellipse fill="none" stroke="#333333" cx="782.35" cy="-86" rx="53.91" ry="53.91"/>
<text text-anchor="middle" x="782.35" y="-83.8" font-family="Arial" font-size="9.00">delivered_notification</text>
</g>
<!-- transition_1b6453892473a467d07372d45eb05abc2031647a -->
<g id="node10" class="node">
<title>transition_1b6453892473a467d07372d45eb05abc2031647a</title>
<polygon fill="none" stroke="#333333" points="944.05,-122 872.05,-122 872.05,-50 944.05,-50 944.05,-122"/>
<text text-anchor="middle" x="908.05" y="-83.8" font-family="Arial" font-size="9.00">done</text>
</g>
<!-- place_bdab27d37e868d3d83da2644677e5d19adc4c2a2&#45;&gt;transition_1b6453892473a467d07372d45eb05abc2031647a -->
<g id="edge9" class="edge">
<title>place_bdab27d37e868d3d83da2644677e5d19adc4c2a2&#45;&gt;transition_1b6453892473a467d07372d45eb05abc2031647a</title>
<path fill="none" stroke="#333333" d="M836.17,-86C846.46,-86 857.09,-86 866.89,-86"/>
<polygon fill="#333333" stroke="#333333" points="866.93,-87.75 871.93,-86 866.93,-84.25 866.93,-87.75"/>
</g>
<!-- place_f818910a3e181b24a8117b365fcae3816b725add -->
<g id="node5" class="node">
<title>place_f818910a3e181b24a8117b365fcae3816b725add</title>
<ellipse fill="none" stroke="#333333" cx="1016.05" cy="-86" rx="36" ry="36"/>
<text text-anchor="middle" x="1016.05" y="-83.8" font-family="Arial" font-size="9.00">delivered</text>
</g>
<!-- transition_b6589fc6ab0dc82cf12099d1c2d40ab994e8410c&#45;&gt;place_b3a93a5e9515ff16189566eaba4658b4cfc84182 -->
<g id="edge2" class="edge">
<title>transition_b6589fc6ab0dc82cf12099d1c2d40ab994e8410c&#45;&gt;place_b3a93a5e9515ff16189566eaba4658b4cfc84182</title>
<path fill="none" stroke="#333333" d="M217.76,-86C227.71,-86 238.15,-86 248.19,-86"/>
<polygon fill="#333333" stroke="#333333" points="248.39,-87.75 253.39,-86 248.39,-84.25 248.39,-87.75"/>
</g>
<!-- transition_356a192b7913b04c54574d18c28d46e6395428ab&#45;&gt;place_aebb659e5fa39ba1447a5c1ce3a87e75ce4e8c29 -->
<g id="edge4" class="edge">
<title>transition_356a192b7913b04c54574d18c28d46e6395428ab&#45;&gt;place_aebb659e5fa39ba1447a5c1ce3a87e75ce4e8c29</title>
<path fill="none" stroke="#333333" d="M476.72,-116.75C487.92,-111.9 499.93,-106.69 510.82,-101.96"/>
<polygon fill="#333333" stroke="#333333" points="511.53,-103.57 515.42,-99.97 510.14,-100.36 511.53,-103.57"/>
</g>
<!-- transition_da4b9237bacccdf19c0760cab7aec4a8359010b0&#45;&gt;place_aebb659e5fa39ba1447a5c1ce3a87e75ce4e8c29 -->
<g id="edge6" class="edge">
<title>transition_da4b9237bacccdf19c0760cab7aec4a8359010b0&#45;&gt;place_aebb659e5fa39ba1447a5c1ce3a87e75ce4e8c29</title>
<path fill="none" stroke="#333333" d="M470.71,-52.64C483.48,-58.18 497.86,-64.41 510.7,-69.98"/>
<polygon fill="#333333" stroke="#333333" points="510.07,-71.62 515.36,-72 511.46,-68.41 510.07,-71.62"/>
</g>
<!-- transition_77de68daecd823babbb58edb1c8e14d7106e83bb&#45;&gt;place_bdab27d37e868d3d83da2644677e5d19adc4c2a2 -->
<g id="edge8" class="edge">
<title>transition_77de68daecd823babbb58edb1c8e14d7106e83bb&#45;&gt;place_bdab27d37e868d3d83da2644677e5d19adc4c2a2</title>
<path fill="none" stroke="#333333" d="M692.76,-86C702.34,-86 712.97,-86 723.45,-86"/>
<polygon fill="#333333" stroke="#333333" points="723.58,-87.75 728.58,-86 723.58,-84.25 723.58,-87.75"/>
</g>
<!-- transition_1b6453892473a467d07372d45eb05abc2031647a&#45;&gt;place_f818910a3e181b24a8117b365fcae3816b725add -->
<g id="edge10" class="edge">
<title>transition_1b6453892473a467d07372d45eb05abc2031647a&#45;&gt;place_f818910a3e181b24a8117b365fcae3816b725add</title>
<path fill="none" stroke="#333333" d="M944.05,-86C953.81,-86 964.49,-86 974.54,-86"/>
<polygon fill="#333333" stroke="#333333" points="974.72,-87.75 979.72,-86 974.72,-84.25 974.72,-87.75"/>
</g>
</g>
</svg>
