<?xml version="1.0" encoding="UTF-8" standalone="no"?>
<!DOCTYPE svg PUBLIC "-//W3C//DTD SVG 1.1//EN"
 "http://www.w3.org/Graphics/SVG/1.1/DTD/svg11.dtd">
<!-- Generated by graphviz version 2.50.0 (20211204.2007)
 -->
<!-- Title: workflow Pages: 1 -->
<svg width="1005pt" height="304pt"
 viewBox="0.00 0.00 1004.74 304.00" xmlns="http://www.w3.org/2000/svg" xmlns:xlink="http://www.w3.org/1999/xlink">
<g id="graph0" class="graph" transform="scale(1 1) rotate(0) translate(4 300)">
<title>workflow</title>
<polygon fill="white" stroke="transparent" points="-4,4 -4,-300 1000.74,-300 1000.74,4 -4,4"/>
<!-- place_1d4198b17fa7cbd1311585cd9f4f5dc6f68dac15 -->
<g id="node1" class="node">
<title>place_1d4198b17fa7cbd1311585cd9f4f5dc6f68dac15</title>
<ellipse fill="lightblue" stroke="#333333" cx="36.66" cy="-155" rx="36.83" ry="36.83"/>
<text text-anchor="middle" x="36.66" y="-152.8" font-family="Arial" font-size="9.00">submit_ticket</text>
</g>
<!-- transition_b6589fc6ab0dc82cf12099d1c2d40ab994e8410c -->
<g id="node8" class="node">
<title>transition_b6589fc6ab0dc82cf12099d1c2d40ab994e8410c</title>
<polygon fill="none" stroke="#333333" points="181.33,-191 109.33,-191 109.33,-119 181.33,-119 181.33,-191"/>
<text text-anchor="middle" x="145.33" y="-152.8" font-family="Arial" font-size="9.00">submit</text>
</g>
<!-- place_1d4198b17fa7cbd1311585cd9f4f5dc6f68dac15&#45;&gt;transition_b6589fc6ab0dc82cf12099d1c2d40ab994e8410c -->
<g id="edge1" class="edge">
<title>place_1d4198b17fa7cbd1311585cd9f4f5dc6f68dac15&#45;&gt;transition_b6589fc6ab0dc82cf12099d1c2d40ab994e8410c</title>
<path fill="none" stroke="#333333" d="M73.48,-155C83.27,-155 93.95,-155 103.98,-155"/>
<polygon fill="#333333" stroke="#333333" points="104.15,-156.75 109.15,-155 104.15,-153.25 104.15,-156.75"/>
</g>
<!-- place_e22586930a5b2f196cd9070b9a4af5c47c1380fa -->
<g id="node2" class="node">
<title>place_e22586930a5b2f196cd9070b9a4af5c47c1380fa</title>
<ellipse fill="none" stroke="#333333" cx="253.33" cy="-155" rx="36" ry="36"/>
<text text-anchor="middle" x="253.33" y="-152.8" font-family="Arial" font-size="9.00">pending</text>
</g>
<!-- transition_356a192b7913b04c54574d18c28d46e6395428ab -->
<g id="node9" class="node">
<title>transition_356a192b7913b04c54574d18c28d46e6395428ab</title>
<polygon fill="none" stroke="#333333" points="505.33,-296 433.33,-296 433.33,-224 505.33,-224 505.33,-296"/>
<text text-anchor="middle" x="469.33" y="-257.8" font-family="Arial" font-size="9.00">close</text>
</g>
<!-- place_e22586930a5b2f196cd9070b9a4af5c47c1380fa&#45;&gt;transition_356a192b7913b04c54574d18c28d46e6395428ab -->
<g id="edge3" class="edge">
<title>place_e22586930a5b2f196cd9070b9a4af5c47c1380fa&#45;&gt;transition_356a192b7913b04c54574d18c28d46e6395428ab</title>
<path fill="none" stroke="#333333" d="M283.38,-174.97C295.99,-183.22 311.1,-192.57 325.33,-200 359.06,-217.61 399.13,-234.06 428.26,-245.27"/>
<polygon fill="#333333" stroke="#333333" points="427.9,-247.01 433.2,-247.16 429.16,-243.74 427.9,-247.01"/>
</g>
<!-- transition_da4b9237bacccdf19c0760cab7aec4a8359010b0 -->
<g id="node10" class="node">
<title>transition_da4b9237bacccdf19c0760cab7aec4a8359010b0</title>
<polygon fill="none" stroke="#333333" points="397.33,-191 325.33,-191 325.33,-119 397.33,-119 397.33,-191"/>
<text text-anchor="middle" x="361.33" y="-152.8" font-family="Arial" font-size="9.00">treat</text>
</g>
<!-- place_e22586930a5b2f196cd9070b9a4af5c47c1380fa&#45;&gt;transition_da4b9237bacccdf19c0760cab7aec4a8359010b0 -->
<g id="edge5" class="edge">
<title>place_e22586930a5b2f196cd9070b9a4af5c47c1380fa&#45;&gt;transition_da4b9237bacccdf19c0760cab7aec4a8359010b0</title>
<path fill="none" stroke="#333333" d="M289.33,-155C299.09,-155 309.77,-155 319.81,-155"/>
<polygon fill="#333333" stroke="#333333" points="320,-156.75 325,-155 320,-153.25 320,-156.75"/>
</g>
<!-- transition_77de68daecd823babbb58edb1c8e14d7106e83bb -->
<g id="node11" class="node">
<title>transition_77de68daecd823babbb58edb1c8e14d7106e83bb</title>
<polygon fill="none" stroke="#333333" points="397.33,-101 325.33,-101 325.33,-29 397.33,-29 397.33,-101"/>
<text text-anchor="middle" x="361.33" y="-62.8" font-family="Arial" font-size="9.00">reject</text>
</g>
<!-- place_e22586930a5b2f196cd9070b9a4af5c47c1380fa&#45;&gt;transition_77de68daecd823babbb58edb1c8e14d7106e83bb -->
<g id="edge7" class="edge">
<title>place_e22586930a5b2f196cd9070b9a4af5c47c1380fa&#45;&gt;transition_77de68daecd823babbb58edb1c8e14d7106e83bb</title>
<path fill="none" stroke="#333333" d="M281.35,-132.06C293.36,-121.86 307.73,-109.66 320.9,-98.48"/>
<polygon fill="#333333" stroke="#333333" points="322.27,-99.61 324.94,-95.04 320,-96.95 322.27,-99.61"/>
</g>
<!-- place_919965534ffc17d078b3594ca148d8d92f24fd12 -->
<g id="node3" class="node">
<title>place_919965534ffc17d078b3594ca148d8d92f24fd12</title>
<ellipse fill="none" stroke="#333333" cx="469.33" cy="-155" rx="36" ry="36"/>
<text text-anchor="middle" x="469.33" y="-152.8" font-family="Arial" font-size="9.00">treating</text>
</g>
<!-- transition_1b6453892473a467d07372d45eb05abc2031647a -->
<g id="node12" class="node">
<title>transition_1b6453892473a467d07372d45eb05abc2031647a</title>
<polygon fill="none" stroke="#333333" points="621.33,-188 541.33,-188 541.33,-108 621.33,-108 621.33,-188"/>
<text text-anchor="middle" x="581.33" y="-145.8" font-family="Arial" font-size="9.00">need_feedback</text>
</g>
<!-- place_919965534ffc17d078b3594ca148d8d92f24fd12&#45;&gt;transition_1b6453892473a467d07372d45eb05abc2031647a -->
<g id="edge9" class="edge">
<title>place_919965534ffc17d078b3594ca148d8d92f24fd12&#45;&gt;transition_1b6453892473a467d07372d45eb05abc2031647a</title>
<path fill="none" stroke="#333333" d="M505.44,-152.77C515.07,-152.15 525.65,-151.48 535.75,-150.84"/>
<polygon fill="#333333" stroke="#333333" points="536.09,-152.57 540.97,-150.5 535.87,-149.08 536.09,-152.57"/>
</g>
<!-- transition_c1dfd96eea8cc2b62785275bca38ac261256e278 -->
<g id="node14" class="node">
<title>transition_c1dfd96eea8cc2b62785275bca38ac261256e278</title>
<polygon fill="none" stroke="#333333" points="617.33,-83 545.33,-83 545.33,-11 617.33,-11 617.33,-83"/>
<text text-anchor="middle" x="581.33" y="-44.8" font-family="Arial" font-size="9.00">solve</text>
</g>
<!-- place_919965534ffc17d078b3594ca148d8d92f24fd12&#45;&gt;transition_c1dfd96eea8cc2b62785275bca38ac261256e278 -->
<g id="edge13" class="edge">
<title>place_919965534ffc17d078b3594ca148d8d92f24fd12&#45;&gt;transition_c1dfd96eea8cc2b62785275bca38ac261256e278</title>
<path fill="none" stroke="#333333" d="M495.56,-130.22C509.13,-116.9 526.15,-100.19 541.38,-85.24"/>
<polygon fill="#333333" stroke="#333333" points="542.87,-86.23 545.21,-81.48 540.41,-83.74 542.87,-86.23"/>
</g>
<!-- place_a2024965369fee52efdce97e75b761dc407c228c -->
<g id="node4" class="node">
<title>place_a2024965369fee52efdce97e75b761dc407c228c</title>
<ellipse fill="none" stroke="#333333" cx="711.03" cy="-144" rx="53.91" ry="53.91"/>
<text text-anchor="middle" x="711.03" y="-141.8" font-family="Arial" font-size="9.00">waiting_for_feedback</text>
</g>
<!-- transition_ac3478d69a3c81fa62e60f5c3696165a4e5e6ac4 -->
<g id="node13" class="node">
<title>transition_ac3478d69a3c81fa62e60f5c3696165a4e5e6ac4</title>
<polygon fill="none" stroke="#333333" points="888.74,-212 800.74,-212 800.74,-124 888.74,-124 888.74,-212"/>
<text text-anchor="middle" x="844.74" y="-165.8" font-family="Arial" font-size="9.00">submit_feedback</text>
</g>
<!-- place_a2024965369fee52efdce97e75b761dc407c228c&#45;&gt;transition_ac3478d69a3c81fa62e60f5c3696165a4e5e6ac4 -->
<g id="edge11" class="edge">
<title>place_a2024965369fee52efdce97e75b761dc407c228c&#45;&gt;transition_ac3478d69a3c81fa62e60f5c3696165a4e5e6ac4</title>
<path fill="none" stroke="#333333" d="M764.09,-153.49C774.47,-155.38 785.33,-157.36 795.57,-159.22"/>
<polygon fill="#333333" stroke="#333333" points="795.31,-160.95 800.55,-160.13 795.94,-157.51 795.31,-160.95"/>
</g>
<!-- place_1f087a5954f6249bb7245576c304a0520d4178c5 -->
<g id="node5" class="node">
<title>place_1f087a5954f6249bb7245576c304a0520d4178c5</title>
<ellipse fill="none" stroke="#333333" cx="469.33" cy="-65" rx="36" ry="36"/>
<text text-anchor="middle" x="469.33" y="-62.8" font-family="Arial" font-size="9.00">rejected</text>
</g>
<!-- place_026ab2fab046093c64cab8ea8bcd501442c0fedc -->
<g id="node6" class="node">
<title>place_026ab2fab046093c64cab8ea8bcd501442c0fedc</title>
<ellipse fill="none" stroke="#333333" cx="711.03" cy="-36" rx="36" ry="36"/>
<text text-anchor="middle" x="711.03" y="-33.8" font-family="Arial" font-size="9.00">resolved</text>
</g>
<!-- transition_902ba3cda1883801594b6e1b452790cc53948fda -->
<g id="node15" class="node">
<title>transition_902ba3cda1883801594b6e1b452790cc53948fda</title>
<polygon fill="none" stroke="#333333" points="880.74,-101 808.74,-101 808.74,-29 880.74,-29 880.74,-101"/>
<text text-anchor="middle" x="844.74" y="-62.8" font-family="Arial" font-size="9.00">close_solved</text>
</g>
<!-- place_026ab2fab046093c64cab8ea8bcd501442c0fedc&#45;&gt;transition_902ba3cda1883801594b6e1b452790cc53948fda -->
<g id="edge15" class="edge">
<title>place_026ab2fab046093c64cab8ea8bcd501442c0fedc&#45;&gt;transition_902ba3cda1883801594b6e1b452790cc53948fda</title>
<path fill="none" stroke="#333333" d="M746.29,-43.54C763.85,-47.41 785.33,-52.14 803.66,-56.17"/>
<polygon fill="#333333" stroke="#333333" points="803.47,-57.93 808.73,-57.29 804.23,-54.51 803.47,-57.93"/>
</g>
<!-- place_ea88fbaa99b73225752e2ef67593f775848160ad -->
<g id="node7" class="node">
<title>place_ea88fbaa99b73225752e2ef67593f775848160ad</title>
<ellipse fill="none" stroke="#333333" cx="960.74" cy="-174" rx="36" ry="36"/>
<text text-anchor="middle" x="960.74" y="-171.8" font-family="Arial" font-size="9.00">closed</text>
</g>
<!-- transition_b6589fc6ab0dc82cf12099d1c2d40ab994e8410c&#45;&gt;place_e22586930a5b2f196cd9070b9a4af5c47c1380fa -->
<g id="edge2" class="edge">
<title>transition_b6589fc6ab0dc82cf12099d1c2d40ab994e8410c&#45;&gt;place_e22586930a5b2f196cd9070b9a4af5c47c1380fa</title>
<path fill="none" stroke="#333333" d="M181.33,-155C191.09,-155 201.77,-155 211.81,-155"/>
<polygon fill="#333333" stroke="#333333" points="212,-156.75 217,-155 212,-153.25 212,-156.75"/>
</g>
<!-- transition_356a192b7913b04c54574d18c28d46e6395428ab&#45;&gt;place_ea88fbaa99b73225752e2ef67593f775848160ad -->
<g id="edge4" class="edge">
<title>transition_356a192b7913b04c54574d18c28d46e6395428ab&#45;&gt;place_ea88fbaa99b73225752e2ef67593f775848160ad</title>
<path fill="none" stroke="#333333" d="M505.44,-262.37C578.93,-266.12 753.36,-268.71 888.74,-221 902.65,-216.1 916.5,-207.88 928.22,-199.68"/>
<polygon fill="#333333" stroke="#333333" points="929.39,-200.99 932.44,-196.66 927.35,-198.14 929.39,-200.99"/>
</g>
<!-- transition_da4b9237bacccdf19c0760cab7aec4a8359010b0&#45;&gt;place_919965534ffc17d078b3594ca148d8d92f24fd12 -->
<g id="edge6" class="edge">
<title>transition_da4b9237bacccdf19c0760cab7aec4a8359010b0&#45;&gt;place_919965534ffc17d078b3594ca148d8d92f24fd12</title>
<path fill="none" stroke="#333333" d="M397.33,-155C407.09,-155 417.77,-155 427.81,-155"/>
<polygon fill="#333333" stroke="#333333" points="428,-156.75 433,-155 428,-153.25 428,-156.75"/>
</g>
<!-- transition_77de68daecd823babbb58edb1c8e14d7106e83bb&#45;&gt;place_1f087a5954f6249bb7245576c304a0520d4178c5 -->
<g id="edge8" class="edge">
<title>transition_77de68daecd823babbb58edb1c8e14d7106e83bb&#45;&gt;place_1f087a5954f6249bb7245576c304a0520d4178c5</title>
<path fill="none" stroke="#333333" d="M397.33,-65C407.09,-65 417.77,-65 427.81,-65"/>
<polygon fill="#333333" stroke="#333333" points="428,-66.75 433,-65 428,-63.25 428,-66.75"/>
</g>
<!-- transition_1b6453892473a467d07372d45eb05abc2031647a&#45;&gt;place_a2024965369fee52efdce97e75b761dc407c228c -->
<g id="edge10" class="edge">
<title>transition_1b6453892473a467d07372d45eb05abc2031647a&#45;&gt;place_a2024965369fee52efdce97e75b761dc407c228c</title>
<path fill="none" stroke="#333333" d="M621.34,-146.78C631.05,-146.47 641.66,-146.14 652.07,-145.82"/>
<polygon fill="#333333" stroke="#333333" points="652.21,-147.56 657.15,-145.66 652.1,-144.06 652.21,-147.56"/>
</g>
<!-- transition_ac3478d69a3c81fa62e60f5c3696165a4e5e6ac4&#45;&gt;place_919965534ffc17d078b3594ca148d8d92f24fd12 -->
<g id="edge12" class="edge">
<title>transition_ac3478d69a3c81fa62e60f5c3696165a4e5e6ac4&#45;&gt;place_919965534ffc17d078b3594ca148d8d92f24fd12</title>
<path fill="none" stroke="#333333" d="M800.38,-193.81C789.14,-199.25 776.8,-204.18 764.74,-207 667.95,-229.59 635.98,-227.33 541.33,-197 528.2,-192.79 514.92,-185.82 503.44,-178.74"/>
<polygon fill="#333333" stroke="#333333" points="504.13,-177.11 498.97,-175.93 502.27,-180.07 504.13,-177.11"/>
</g>
<!-- transition_c1dfd96eea8cc2b62785275bca38ac261256e278&#45;&gt;place_026ab2fab046093c64cab8ea8bcd501442c0fedc -->
<g id="edge14" class="edge">
<title>transition_c1dfd96eea8cc2b62785275bca38ac261256e278&#45;&gt;place_026ab2fab046093c64cab8ea8bcd501442c0fedc</title>
<path fill="none" stroke="#333333" d="M617.56,-43.97C633.75,-42.57 653.04,-40.91 669.8,-39.47"/>
<polygon fill="#333333" stroke="#333333" points="670.08,-41.2 674.91,-39.03 669.78,-37.71 670.08,-41.2"/>
</g>
<!-- transition_902ba3cda1883801594b6e1b452790cc53948fda&#45;&gt;place_ea88fbaa99b73225752e2ef67593f775848160ad -->
<g id="edge16" class="edge">
<title>transition_902ba3cda1883801594b6e1b452790cc53948fda&#45;&gt;place_ea88fbaa99b73225752e2ef67593f775848160ad</title>
<path fill="none" stroke="#333333" d="M880.87,-98.59C896.67,-113.7 915.12,-131.34 930.2,-145.75"/>
<polygon fill="#333333" stroke="#333333" points="929.13,-147.15 933.95,-149.34 931.55,-144.62 929.13,-147.15"/>
</g>
</g>
</svg>
