<?xml version="1.0" encoding="UTF-8" standalone="no"?>
<!DOCTYPE svg PUBLIC "-//W3C//DTD SVG 1.1//EN"
 "http://www.w3.org/Graphics/SVG/1.1/DTD/svg11.dtd">
<!-- Generated by graphviz version 2.50.0 (20211204.2007)
 -->
<!-- Title: workflow Pages: 1 -->
<svg width="997pt" height="206pt"
 viewBox="0.00 0.00 996.92 206.37" xmlns="http://www.w3.org/2000/svg" xmlns:xlink="http://www.w3.org/1999/xlink">
<g id="graph0" class="graph" transform="scale(1 1) rotate(0) translate(4 202.37)">
<title>workflow</title>
<polygon fill="white" stroke="transparent" points="-4,4 -4,-202.37 992.92,-202.37 992.92,4 -4,4"/>
<!-- place_f0347ce3a03a3ba71f596438a2b80dd21c9af71b -->
<g id="node1" class="node">
<title>place_f0347ce3a03a3ba71f596438a2b80dd21c9af71b</title>
<ellipse fill="lightblue" stroke="#333333" cx="36" cy="-98.41" rx="36" ry="36"/>
<text text-anchor="middle" x="36" y="-96.21" font-family="Arial" font-size="9.00">new_user</text>
</g>
<!-- transition_b6589fc6ab0dc82cf12099d1c2d40ab994e8410c -->
<g id="node8" class="node">
<title>transition_b6589fc6ab0dc82cf12099d1c2d40ab994e8410c</title>
<polygon fill="none" stroke="#333333" points="197,-142.91 108,-142.91 108,-53.91 197,-53.91 197,-142.91"/>
<text text-anchor="middle" x="152.5" y="-96.21" font-family="Arial" font-size="9.00">create_new_user</text>
</g>
<!-- place_f0347ce3a03a3ba71f596438a2b80dd21c9af71b&#45;&gt;transition_b6589fc6ab0dc82cf12099d1c2d40ab994e8410c -->
<g id="edge1" class="edge">
<title>place_f0347ce3a03a3ba71f596438a2b80dd21c9af71b&#45;&gt;transition_b6589fc6ab0dc82cf12099d1c2d40ab994e8410c</title>
<path fill="none" stroke="#333333" d="M72.29,-98.41C81.8,-98.41 92.27,-98.41 102.39,-98.41"/>
<polygon fill="#333333" stroke="#333333" points="102.64,-100.16 107.64,-98.41 102.64,-96.66 102.64,-100.16"/>
</g>
<!-- place_4e3d073debfe25fed1c0c8acb520038b55bef7ce -->
<g id="node2" class="node">
<title>place_4e3d073debfe25fed1c0c8acb520038b55bef7ce</title>
<ellipse fill="none" stroke="#333333" cx="278.96" cy="-152.41" rx="45.92" ry="45.92"/>
<text text-anchor="middle" x="278.96" y="-150.21" font-family="Arial" font-size="9.00">need_information</text>
</g>
<!-- transition_da4b9237bacccdf19c0760cab7aec4a8359010b0 -->
<g id="node10" class="node">
<title>transition_da4b9237bacccdf19c0760cab7aec4a8359010b0</title>
<polygon fill="none" stroke="#333333" points="448.92,-193.41 360.92,-193.41 360.92,-105.41 448.92,-105.41 448.92,-193.41"/>
<text text-anchor="middle" x="404.92" y="-147.21" font-family="Arial" font-size="9.00">information_filled</text>
</g>
<!-- place_4e3d073debfe25fed1c0c8acb520038b55bef7ce&#45;&gt;transition_da4b9237bacccdf19c0760cab7aec4a8359010b0 -->
<g id="edge6" class="edge">
<title>place_4e3d073debfe25fed1c0c8acb520038b55bef7ce&#45;&gt;transition_da4b9237bacccdf19c0760cab7aec4a8359010b0</title>
<path fill="none" stroke="#333333" d="M325.06,-151.32C334.97,-151.08 345.49,-150.82 355.52,-150.58"/>
<polygon fill="#333333" stroke="#333333" points="355.75,-152.33 360.71,-150.46 355.67,-148.83 355.75,-152.33"/>
</g>
<!-- place_241e11b6bff1e311b9d3c9a232bb7cfcfb65cc91 -->
<g id="node3" class="node">
<title>place_241e11b6bff1e311b9d3c9a232bb7cfcfb65cc91</title>
<ellipse fill="none" stroke="#333333" cx="278.96" cy="-44.41" rx="44.32" ry="44.32"/>
<text text-anchor="middle" x="278.96" y="-42.21" font-family="Arial" font-size="9.00">need_verification</text>
</g>
<!-- transition_356a192b7913b04c54574d18c28d46e6395428ab -->
<g id="node9" class="node">
<title>transition_356a192b7913b04c54574d18c28d46e6395428ab</title>
<polygon fill="none" stroke="#333333" points="440.92,-85.41 368.92,-85.41 368.92,-13.41 440.92,-13.41 440.92,-85.41"/>
<text text-anchor="middle" x="404.92" y="-47.21" font-family="Arial" font-size="9.00">verify</text>
</g>
<!-- place_241e11b6bff1e311b9d3c9a232bb7cfcfb65cc91&#45;&gt;transition_356a192b7913b04c54574d18c28d46e6395428ab -->
<g id="edge4" class="edge">
<title>place_241e11b6bff1e311b9d3c9a232bb7cfcfb65cc91&#45;&gt;transition_356a192b7913b04c54574d18c28d46e6395428ab</title>
<path fill="none" stroke="#333333" d="M323.66,-46.17C336.71,-46.7 350.94,-47.27 363.75,-47.79"/>
<polygon fill="#333333" stroke="#333333" points="363.7,-49.54 368.77,-47.99 363.84,-46.04 363.7,-49.54"/>
</g>
<!-- place_ec734b651574683f36974c7f12847fbbe084dbe2 -->
<g id="node4" class="node">
<title>place_ec734b651574683f36974c7f12847fbbe084dbe2</title>
<ellipse fill="none" stroke="#333333" cx="520.92" cy="-53.41" rx="36" ry="36"/>
<text text-anchor="middle" x="520.92" y="-51.21" font-family="Arial" font-size="9.00">verified</text>
</g>
<!-- transition_77de68daecd823babbb58edb1c8e14d7106e83bb -->
<g id="node11" class="node">
<title>transition_77de68daecd823babbb58edb1c8e14d7106e83bb</title>
<polygon fill="none" stroke="#333333" points="664.92,-134.41 592.92,-134.41 592.92,-62.41 664.92,-62.41 664.92,-134.41"/>
<text text-anchor="middle" x="628.92" y="-96.21" font-family="Arial" font-size="9.00">register</text>
</g>
<!-- place_ec734b651574683f36974c7f12847fbbe084dbe2&#45;&gt;transition_77de68daecd823babbb58edb1c8e14d7106e83bb -->
<g id="edge8" class="edge">
<title>place_ec734b651574683f36974c7f12847fbbe084dbe2&#45;&gt;transition_77de68daecd823babbb58edb1c8e14d7106e83bb</title>
<path fill="none" stroke="#333333" d="M554.3,-67.16C564.95,-71.68 576.92,-76.76 588.07,-81.49"/>
<polygon fill="#333333" stroke="#333333" points="587.5,-83.15 592.79,-83.5 588.87,-79.93 587.5,-83.15"/>
</g>
<!-- place_6248086ba33138fb08ab9f0c37fce9beaaad04b8 -->
<g id="node5" class="node">
<title>place_6248086ba33138fb08ab9f0c37fce9beaaad04b8</title>
<ellipse fill="none" stroke="#333333" cx="520.92" cy="-145.41" rx="36" ry="36"/>
<text text-anchor="middle" x="520.92" y="-143.21" font-family="Arial" font-size="9.00">registered</text>
</g>
<!-- place_6248086ba33138fb08ab9f0c37fce9beaaad04b8&#45;&gt;transition_77de68daecd823babbb58edb1c8e14d7106e83bb -->
<g id="edge9" class="edge">
<title>place_6248086ba33138fb08ab9f0c37fce9beaaad04b8&#45;&gt;transition_77de68daecd823babbb58edb1c8e14d7106e83bb</title>
<path fill="none" stroke="#333333" d="M554.01,-131.18C564.67,-126.45 576.68,-121.13 587.87,-116.17"/>
<polygon fill="#333333" stroke="#333333" points="588.75,-117.69 592.61,-114.07 587.33,-114.49 588.75,-117.69"/>
</g>
<!-- place_2bb6b986c5d6fb26dd9dd1054b545ce022371b0c -->
<g id="node6" class="node">
<title>place_2bb6b986c5d6fb26dd9dd1054b545ce022371b0c</title>
<ellipse fill="none" stroke="#333333" cx="736.92" cy="-98.41" rx="36" ry="36"/>
<text text-anchor="middle" x="736.92" y="-96.21" font-family="Arial" font-size="9.00">active</text>
</g>
<!-- transition_1b6453892473a467d07372d45eb05abc2031647a -->
<g id="node12" class="node">
<title>transition_1b6453892473a467d07372d45eb05abc2031647a</title>
<polygon fill="none" stroke="#333333" points="880.92,-134.41 808.92,-134.41 808.92,-62.41 880.92,-62.41 880.92,-134.41"/>
<text text-anchor="middle" x="844.92" y="-96.21" font-family="Arial" font-size="9.00">delete</text>
</g>
<!-- place_2bb6b986c5d6fb26dd9dd1054b545ce022371b0c&#45;&gt;transition_1b6453892473a467d07372d45eb05abc2031647a -->
<g id="edge11" class="edge">
<title>place_2bb6b986c5d6fb26dd9dd1054b545ce022371b0c&#45;&gt;transition_1b6453892473a467d07372d45eb05abc2031647a</title>
<path fill="none" stroke="#333333" d="M772.92,-98.41C782.68,-98.41 793.36,-98.41 803.4,-98.41"/>
<polygon fill="#333333" stroke="#333333" points="803.59,-100.16 808.59,-98.41 803.59,-96.66 803.59,-100.16"/>
</g>
<!-- place_77c829de80cf75b0f153a393fc32e336058acbba -->
<g id="node7" class="node">
<title>place_77c829de80cf75b0f153a393fc32e336058acbba</title>
<ellipse fill="none" stroke="#333333" cx="952.92" cy="-98.41" rx="36" ry="36"/>
<text text-anchor="middle" x="952.92" y="-96.21" font-family="Arial" font-size="9.00">deleting</text>
</g>
<!-- transition_b6589fc6ab0dc82cf12099d1c2d40ab994e8410c&#45;&gt;place_4e3d073debfe25fed1c0c8acb520038b55bef7ce -->
<g id="edge2" class="edge">
<title>transition_b6589fc6ab0dc82cf12099d1c2d40ab994e8410c&#45;&gt;place_4e3d073debfe25fed1c0c8acb520038b55bef7ce</title>
<path fill="none" stroke="#333333" d="M197.03,-117.3C208.19,-122.14 220.24,-127.37 231.54,-132.27"/>
<polygon fill="#333333" stroke="#333333" points="231.05,-133.97 236.34,-134.35 232.45,-130.76 231.05,-133.97"/>
</g>
<!-- transition_b6589fc6ab0dc82cf12099d1c2d40ab994e8410c&#45;&gt;place_241e11b6bff1e311b9d3c9a232bb7cfcfb65cc91 -->
<g id="edge3" class="edge">
<title>transition_b6589fc6ab0dc82cf12099d1c2d40ab994e8410c&#45;&gt;place_241e11b6bff1e311b9d3c9a232bb7cfcfb65cc91</title>
<path fill="none" stroke="#333333" d="M197.03,-79.52C208.79,-74.42 221.53,-68.89 233.34,-63.77"/>
<polygon fill="#333333" stroke="#333333" points="234.11,-65.34 238,-61.75 232.71,-62.13 234.11,-65.34"/>
</g>
<!-- transition_356a192b7913b04c54574d18c28d46e6395428ab&#45;&gt;place_ec734b651574683f36974c7f12847fbbe084dbe2 -->
<g id="edge5" class="edge">
<title>transition_356a192b7913b04c54574d18c28d46e6395428ab&#45;&gt;place_ec734b651574683f36974c7f12847fbbe084dbe2</title>
<path fill="none" stroke="#333333" d="M441.05,-50.64C453.19,-51.07 466.88,-51.55 479.41,-51.99"/>
<polygon fill="#333333" stroke="#333333" points="479.65,-53.75 484.7,-52.17 479.77,-50.25 479.65,-53.75"/>
</g>
<!-- transition_da4b9237bacccdf19c0760cab7aec4a8359010b0&#45;&gt;place_6248086ba33138fb08ab9f0c37fce9beaaad04b8 -->
<g id="edge7" class="edge">
<title>transition_da4b9237bacccdf19c0760cab7aec4a8359010b0&#45;&gt;place_6248086ba33138fb08ab9f0c37fce9beaaad04b8</title>
<path fill="none" stroke="#333333" d="M449.02,-147.9C459.11,-147.54 469.83,-147.17 479.78,-146.82"/>
<polygon fill="#333333" stroke="#333333" points="479.98,-148.56 484.92,-146.64 479.86,-145.06 479.98,-148.56"/>
</g>
<!-- transition_77de68daecd823babbb58edb1c8e14d7106e83bb&#45;&gt;place_2bb6b986c5d6fb26dd9dd1054b545ce022371b0c -->
<g id="edge10" class="edge">
<title>transition_77de68daecd823babbb58edb1c8e14d7106e83bb&#45;&gt;place_2bb6b986c5d6fb26dd9dd1054b545ce022371b0c</title>
<path fill="none" stroke="#333333" d="M664.92,-98.41C674.68,-98.41 685.36,-98.41 695.4,-98.41"/>
<polygon fill="#333333" stroke="#333333" points="695.59,-100.16 700.59,-98.41 695.59,-96.66 695.59,-100.16"/>
</g>
<!-- transition_1b6453892473a467d07372d45eb05abc2031647a&#45;&gt;place_77c829de80cf75b0f153a393fc32e336058acbba -->
<g id="edge12" class="edge">
<title>transition_1b6453892473a467d07372d45eb05abc2031647a&#45;&gt;place_77c829de80cf75b0f153a393fc32e336058acbba</title>
<path fill="none" stroke="#333333" d="M880.92,-98.41C890.68,-98.41 901.36,-98.41 911.4,-98.41"/>
<polygon fill="#333333" stroke="#333333" points="911.59,-100.16 916.59,-98.41 911.59,-96.66 911.59,-100.16"/>
</g>
</g>
</svg>
